<svg width="580" height="999" viewBox="0 0 580 999" fill="none" xmlns="http://www.w3.org/2000/svg">
<path d="M287.5 968.5C287.5 968.5 275.5 1000.5 243.5 998.5C211.5 996.5 194 940.5 194 940.5C194 940.5 176.913 946.741 165.5 947C119.735 948.037 93.5 854.5 93.5 854.5C93.5 854.5 93 859 75 854.5C57 850 31.5 793 28.5 772C25.9162 753.914 34.4588 722.105 36.8791 713.626C33.9013 713.406 28.945 712.781 21 711.5C-10 706.5 -0.5 640 11.5 598.5C23.5 557 61 530.5 61 530.5C61 530.5 62.8556 494.858 75 477C87.0126 459.335 119 444.5 119 444.5C119 444.5 95.5533 421.246 93.5 402C92.9821 397.146 91.8843 394.106 93.5 389.5C97.0897 379.266 108.471 381.1 119 378.5C134.355 374.708 159.5 378.5 159.5 378.5C159.5 378.5 137.61 355.214 139.5 337.5C141.306 320.569 152 305 165.5 302.5C179 300 188.5 321 194 326C199.5 331 223 350 223 350C223 350 230.518 302.944 252.5 302C265.675 301.435 274.655 306.9 282.5 317.5C289.431 326.865 289.5 346.5 289.5 346.5C289.5 346.5 292.342 336.823 297.5 335C300.445 333.959 306.5 335.5 306.5 335.5C306.5 335.5 301.483 352.54 305.5 362.5C308.466 369.854 310.212 377.008 318 378.5C324.698 379.783 331.5 376.5 334 371.5C336.5 366.5 333.5 346 333.5 346C333.5 346 339.374 353.8 344.5 355.5C353.31 358.423 358.941 351.887 366.5 346.5C374.969 340.464 383.5 326 383.5 326C383.5 326 394 306 399 297C404 288 407.269 281.066 417 277.5C424.334 274.813 430.008 274.019 437 277.5C447.517 282.735 447.18 293.78 448 305.5C449 319.793 443.327 327.645 437 340.5C425.765 363.328 393.5 389 393.5 389C393.5 389 418.875 381.017 435 375.5C453.467 369.181 477.5 349.5 482 358.5C486.5 367.5 486.791 377.271 484.5 389C481.835 402.644 467 420 467 420C467 420 496.905 444.201 507.5 465.5C515.769 482.122 519.5 511.5 519.5 511.5C519.5 511.5 574.5 573 577 610.5C579.5 648 582.119 649.437 573 671.5C569.392 680.229 568.162 686.342 561 692.5C556.758 696.148 548.5 699.5 548.5 699.5C548.5 699.5 556.658 735.512 554 758.5C551.503 780.093 548.166 792.851 537 811.5C527.554 827.277 522.972 840.767 505.5 846.5C494.554 850.092 476 846.5 476 846.5C476 846.5 467.329 884.98 451 902.5C439.885 914.425 431.781 920.323 416.5 926C410.994 928.046 402 930 402 930C402 930 386.09 967.633 366 982C351.961 992.04 342.228 999.548 325 998.5C313.594 997.806 305.614 996.546 297.5 988.5C291.299 982.351 287.5 968.5 287.5 968.5Z" fill="#2C2C2C"/>
<path d="M265 705.5C253.667 705.5 244.833 701.833 238.5 694.5C232.5 687.167 229.5 678.333 229.5 668C229.5 654.333 234.667 643.167 245 634.5C255.333 625.5 270.333 615.5 290 604.5C299.667 598.833 308 592.667 315 586C322.333 579 326 570.833 326 561.5C326 551.167 321.833 543.667 313.5 539C305.167 534.333 295.833 532 285.5 532C275.833 532 267.5 533.833 260.5 537.5C253.833 541.167 250.5 545.667 250.5 551C250.5 554.333 252 557 255 559C258 560.667 261.167 562.167 264.5 563.5C267.833 564.5 269.5 566.833 269.5 570.5C269.5 577.167 267.333 583.833 263 590.5C258.667 596.833 251.333 600 241 600C233.333 600 226.167 597.333 219.5 592C213.167 586.667 210 578.333 210 567C210 554.333 214 542.167 222 530.5C230.333 518.5 241.5 508.667 255.5 501C269.5 493 285.167 489 302.5 489C323.167 489 339.667 494.667 352 506C364.667 517 371 531.167 371 548.5C371 564.833 366.167 579 356.5 591C347.167 603 335.5 614.667 321.5 626C313.167 632.333 306 638.5 300 644.5C294 650.5 291 655.833 291 660.5C291 662.833 291.667 665 293 667C294.667 669 296.167 670.833 297.5 672.5C301.167 675.5 303 679 303 683C303 688.333 299 693.5 291 698.5C283 703.167 274.333 705.5 265 705.5ZM267 791.5C257.667 791.5 250 788.5 244 782.5C238.333 776.5 235.5 768.833 235.5 759.5C235.5 749.833 238.667 741.833 245 735.5C251.333 729.167 259.5 726 269.5 726C278.833 726 286.333 728.833 292 734.5C297.667 740.167 300.5 747.667 300.5 757C300.5 767 297.333 775.333 291 782C284.667 788.333 276.667 791.5 267 791.5Z" fill="#EEEEEE"/>
<path d="M223 298C220.377 320.498 223 356 223 356C223 356 247.64 337.858 252.5 320.5C255.712 309.03 251.176 301.837 252.5 290C253.858 277.855 254.047 270.437 259.5 259.5C266.035 246.393 275.301 242.974 285 232C303.115 211.504 312.74 199.497 329 177.5C348.766 150.761 358.279 134.636 376 106.5C388.421 86.7782 392.179 73.4881 407 55.5C419.823 39.9364 442 24 444.5 20C447 16 443.534 12.4193 440.5 9.00002C437.466 5.58071 422.866 11.3451 413 16.5C396.573 25.0831 392.677 37.2149 381.5 52C372.061 64.4853 368.05 72.3905 359.5 85.5C336.952 120.071 329.638 143.403 302.5 174.5C285.973 193.438 277.4 205.816 256 219C236.795 230.831 224.553 239.094 202 239.5C184.48 239.816 173.08 238.219 158.5 228.5C143.258 218.34 133.04 208.704 131 190.5C129.39 176.133 128.641 162.444 136 150C144.013 136.45 154.865 128.836 170.5 127C183.95 125.42 195.614 127.987 196.5 141.5C197.061 150.055 198.236 155.902 191 160.5C182.595 165.841 171.5 154.5 164 156.5C156.5 158.5 152.7 162.651 151.5 169.5C149.932 178.449 158.26 189.51 165.5 195C171.955 199.894 177.4 200.405 185.5 200.5C200.432 200.675 210.394 194.836 219.5 183C231.317 167.641 235.532 145.416 229.5 127C222.28 104.956 199 94.5 181 91.5C163 88.5 129.142 102.011 112 127C97.7033 147.842 95.1395 165.605 99.5 190.5C103.712 214.548 112.888 228.13 131 244.5C151.069 262.639 167.951 271.326 195 271C208.787 270.834 229.5 263.5 229.5 263.5C229.5 263.5 224.588 284.382 223 298Z" fill="#2C2C2C"/>
<path d="M311.5 230.5L306 335.5L300.5 348.5L306 372.5L320.5 385.5L336.5 371C336.5 371 334.725 357.311 334 348.5C331.919 323.201 332.218 308.821 334 283.5C335.702 259.314 340 230.5 342.5 222C345 213.5 362.404 213.141 374 205.5C392.349 193.409 399.516 182.579 415.5 167.5C436.592 147.603 450.501 138.233 468.5 115.5C482.352 98.0052 485.3 84.7131 499.5 67.5C513.473 50.5626 527.5 40 540 28.5C552.5 17 538.915 7.2204 529 2C516.558 -4.55126 507.698 8.99508 496.5 17.5C482.316 28.2725 477.527 38.1466 468.5 53.5C457.749 71.7853 460.21 86.3134 448.5 104C439.574 117.482 431.859 122.993 420.5 134.5C401.168 154.084 391.447 167.096 368 181.5C350.87 192.023 340.914 199.747 321 202.5C303.485 204.921 289.88 208.454 276 197.5C263.219 187.413 261.07 175.247 260 159C258.726 139.653 264.501 127.611 276 112C287.698 96.118 297.285 81.869 317 82.5C330.528 82.933 343.244 85.3279 348 98C352.318 109.505 347.97 120.168 338.5 128C331.741 133.59 325.69 133.308 317 134.5C309.456 135.535 303.141 129.384 297.5 134.5C291.281 140.141 291.155 150.501 297.5 156C305 162.5 331.099 166.295 343.5 159C352 154 369.5 134.5 375.5 119.5C383.465 99.5871 374 71.5 358 61.5C342 51.5 319.876 50.3528 297.5 58C268.28 67.9861 253.703 81.4116 238 108C224.465 130.917 221.032 154.767 229.5 180C236.839 201.87 242.598 212.241 263.5 222C280.75 230.053 311.5 230.5 311.5 230.5Z" fill="#2C2C2C"/>
</svg>
