<svg width="713" height="852" viewBox="0 0 713 852" fill="none" xmlns="http://www.w3.org/2000/svg">
<path d="M287.682 828.948C306.481 842.142 315.773 850.298 336.56 851.001C359.043 851.761 374.629 839.239 390.139 828.948C405.648 818.656 590.352 632.919 632.181 593.714C674.01 554.508 699.715 510.726 707.849 450.123C717.283 379.82 717.316 328.318 676.829 271.247C662.319 250.792 652.14 240.307 632.181 225.671C595.86 199.038 568.399 191.818 524.084 188.916C487.428 186.515 464.979 188.518 431.027 203.128C400.81 216.13 386.661 230.26 362.409 253.115C355.187 259.921 344.55 271.247 344.55 271.247C344.55 271.247 334.809 259.903 328.1 253.115C305.071 229.813 290.989 215.984 261.363 203.128C232.139 190.447 213.083 187.377 181.465 188.916C139.544 190.955 113.311 199.124 79.9483 225.671C47.2437 251.694 35.4167 276.162 19.7902 315.844C0.549822 364.703 -3.81739 397.984 4.28073 450.123C14.0907 513.284 40.9396 556.468 79.9483 593.714C118.957 630.959 268.882 815.753 287.682 828.948Z" fill="#2C2C2C"/>
<path d="M330 580.5C318.667 580.5 309.833 576.833 303.5 569.5C297.5 562.167 294.5 553.333 294.5 543C294.5 529.333 299.667 518.167 310 509.5C320.333 500.5 335.333 490.5 355 479.5C364.667 473.833 373 467.667 380 461C387.333 454 391 445.833 391 436.5C391 426.167 386.833 418.667 378.5 414C370.167 409.333 360.833 407 350.5 407C340.833 407 332.5 408.833 325.5 412.5C318.833 416.167 315.5 420.667 315.5 426C315.5 429.333 317 432 320 434C323 435.667 326.167 437.167 329.5 438.5C332.833 439.5 334.5 441.833 334.5 445.5C334.5 452.167 332.333 458.833 328 465.5C323.667 471.833 316.333 475 306 475C298.333 475 291.167 472.333 284.5 467C278.167 461.667 275 453.333 275 442C275 429.333 279 417.167 287 405.5C295.333 393.5 306.5 383.667 320.5 376C334.5 368 350.167 364 367.5 364C388.167 364 404.667 369.667 417 381C429.667 392 436 406.167 436 423.5C436 439.833 431.167 454 421.5 466C412.167 478 400.5 489.667 386.5 501C378.167 507.333 371 513.5 365 519.5C359 525.5 356 530.833 356 535.5C356 537.833 356.667 540 358 542C359.667 544 361.167 545.833 362.5 547.5C366.167 550.5 368 554 368 558C368 563.333 364 568.5 356 573.5C348 578.167 339.333 580.5 330 580.5ZM332 666.5C322.667 666.5 315 663.5 309 657.5C303.333 651.5 300.5 643.833 300.5 634.5C300.5 624.833 303.667 616.833 310 610.5C316.333 604.167 324.5 601 334.5 601C343.833 601 351.333 603.833 357 609.5C362.667 615.167 365.5 622.667 365.5 632C365.5 642 362.333 650.333 356 657C349.667 663.333 341.667 666.5 332 666.5Z" fill="#EEEEEE"/>
<path d="M331.86 138.928V270.757L356.3 277.618C356.3 277.618 356.64 261.185 356.3 250.665C355.552 227.577 352.714 214.806 350.19 191.856C348.083 172.706 344.55 142.849 344.55 142.849C344.55 142.849 360.645 146.184 370.869 148.73C400.794 156.183 415.03 156.617 433.847 157.551C453.586 158.531 477.796 161.443 498.705 161.962C513.257 162.323 521.894 162.903 535.834 158.531C552.142 153.417 563.115 149.625 573.433 135.498C581.908 123.893 585.423 114.797 585.182 100.213C584.973 87.5054 581.322 80.396 575.313 69.3385C568.775 57.3083 563.03 51.6133 552.753 42.8747C539.901 31.9462 531.333 24.4039 515.624 18.8612C497.356 12.4155 485.325 7.87864 466.276 11.0201C449.157 13.8433 435.671 19.1572 425.857 34.0534C418.337 45.4693 416.083 55.405 419.278 68.8484C423.117 85.0058 435.727 101.683 447.947 107.074C460.166 112.465 470.976 117.365 480.376 117.365C489.775 117.365 515.714 116.083 521.734 101.683C525.182 93.4375 524.782 87.0647 521.734 78.6498C517.756 67.6676 510.318 63.826 500.253 58.6281L500.115 58.5569C490.695 53.6922 473.791 47.7719 471.916 58.5569C470.832 64.7913 476.146 67.3782 480.376 67.3782C485.562 67.3782 505.343 71.6892 503.875 86.491C502.465 100.703 487.022 102.064 473.796 101.683C452.389 101.067 431.023 75.0551 435.257 53.1662C439.202 32.7722 458.544 22.2917 478.496 22.2917C495.885 22.2917 533.484 40.4243 545.234 53.1662C556.983 65.908 569.907 81.0348 566.853 101.683C564.533 117.369 556.513 129.127 545.234 135.498C533.954 141.869 510.548 145.472 487.895 144.809C460.841 144.017 416.705 136.003 404.708 134.028C386.849 131.087 367.318 129.602 331.86 123.246C295.775 116.778 274.948 113.28 238.333 113.445C216.098 113.545 202.859 113.007 181.465 119.326C164.564 124.317 146.686 128.147 141.046 139.909C135.407 151.67 140.106 152.65 146.216 151.67C152.326 150.69 199.705 134.947 238.333 132.558C274.871 130.298 331.86 138.928 331.86 138.928Z" fill="#2C2C2C" stroke="#2C2C2C" stroke-width="20"/>
</svg>
