<svg width="676" height="849" viewBox="0 0 676 849" fill="none" xmlns="http://www.w3.org/2000/svg">
<path d="M349.702 189.038C330.971 188.213 301.702 190.038 301.702 190.038C301.702 190.038 275.202 186.038 238.202 193.538C201.202 201.038 175.202 229.538 175.202 229.538C175.202 229.538 158.782 239.813 148.702 247.038C140.1 253.204 127.202 263.538 127.202 263.538C127.202 263.538 93.7021 267.538 65.2021 299.538C36.7021 331.538 39.7021 377.538 39.7021 377.538C39.7021 377.538 29.4584 401.857 24.7021 418.038C18.4711 439.237 13.7021 473.538 13.7021 473.538C13.7021 473.538 0.202145 502.538 2.20214 531.038C4.20213 559.538 21.7021 581.038 21.7021 581.038C21.7021 581.038 24.8338 594.909 27.7021 603.538C30.0811 610.696 34.7021 621.538 34.7021 621.538C34.7021 621.538 3.70214 667.538 61.7021 727.038C119.702 786.538 145.702 778.538 145.702 778.538C145.702 778.538 157.202 803.538 202.202 821.038C247.202 838.538 287.202 822.538 287.202 822.538C287.202 822.538 315.202 846.038 365.202 846.038C415.202 846.038 447.202 814.038 447.202 814.038C447.202 814.038 459.012 808.676 466.202 804.538C472.446 800.946 481.702 794.538 481.702 794.538C481.702 794.538 524.702 794.038 563.702 766.038C602.702 738.038 605.202 702.538 605.202 702.538C605.202 702.538 609.111 695.652 611.202 691.038C613.193 686.646 615.702 679.538 615.702 679.538C615.702 679.538 635.702 662.538 644.702 639.538C653.702 616.538 652.202 585.038 652.202 585.038C652.202 585.038 673.202 548.538 673.202 495.538C673.202 442.538 644.702 408.038 644.702 408.038C644.702 408.038 680.702 394.538 637.702 332.538C594.702 270.538 570.202 286.538 570.202 286.538C570.202 286.538 557.199 273.293 548.202 265.538C539.031 257.633 523.702 246.538 523.702 246.538C523.702 246.538 523.702 219.538 466.702 202.538C409.702 185.538 393.202 193.538 393.202 193.538C393.202 193.538 366.764 189.79 349.702 189.038Z" fill="#2C2C2C" stroke="#2C2C2C" stroke-width="4"/>
<path d="M312 582.5C300.667 582.5 291.833 578.833 285.5 571.5C279.5 564.167 276.5 555.333 276.5 545C276.5 531.333 281.667 520.167 292 511.5C302.333 502.5 317.333 492.5 337 481.5C346.667 475.833 355 469.667 362 463C369.333 456 373 447.833 373 438.5C373 428.167 368.833 420.667 360.5 416C352.167 411.333 342.833 409 332.5 409C322.833 409 314.5 410.833 307.5 414.5C300.833 418.167 297.5 422.667 297.5 428C297.5 431.333 299 434 302 436C305 437.667 308.167 439.167 311.5 440.5C314.833 441.5 316.5 443.833 316.5 447.5C316.5 454.167 314.333 460.833 310 467.5C305.667 473.833 298.333 477 288 477C280.333 477 273.167 474.333 266.5 469C260.167 463.667 257 455.333 257 444C257 431.333 261 419.167 269 407.5C277.333 395.5 288.5 385.667 302.5 378C316.5 370 332.167 366 349.5 366C370.167 366 386.667 371.667 399 383C411.667 394 418 408.167 418 425.5C418 441.833 413.167 456 403.5 468C394.167 480 382.5 491.667 368.5 503C360.167 509.333 353 515.5 347 521.5C341 527.5 338 532.833 338 537.5C338 539.833 338.667 542 340 544C341.667 546 343.167 547.833 344.5 549.5C348.167 552.5 350 556 350 560C350 565.333 346 570.5 338 575.5C330 580.167 321.333 582.5 312 582.5ZM314 668.5C304.667 668.5 297 665.5 291 659.5C285.333 653.5 282.5 645.833 282.5 636.5C282.5 626.833 285.667 618.833 292 612.5C298.333 606.167 306.5 603 316.5 603C325.833 603 333.333 605.833 339 611.5C344.667 617.167 347.5 624.667 347.5 634C347.5 644 344.333 652.333 338 659C331.667 665.333 323.667 668.5 314 668.5Z" fill="#EEEEEE"/>
<path d="M67.2873 138.464L57.6321 90.188C57.2001 88.0281 59.124 86.1327 61.2679 86.6378C78.7336 90.7522 142.519 104.937 186.202 103.538C239.062 101.846 268.408 91.8965 318.702 75.5384C367.665 59.6132 389.629 35.9494 439.202 22.0384C460.736 15.9956 472.844 9.43772 495.202 10.0384L495.352 10.0424C515.578 10.5857 529.077 10.9483 545.702 22.5384C560.471 32.8342 567.8 42.3645 573.202 59.5384C579.071 78.1985 576.961 91.182 570.202 109.538C564.382 125.345 558.85 134.508 545.702 145.038C532.994 155.217 523.252 158.297 507.202 161.038C495.076 163.109 487.613 164.114 475.702 161.038C460.024 156.99 449.997 151.635 441.202 138.038C433.691 126.425 431.271 117.233 433.202 103.538C434.909 91.4328 439.073 84.6692 447.202 75.5384C454.478 67.3664 459.705 62.6249 470.202 59.5384C482.822 55.8279 493.163 55.1681 503.702 63.0384C510.342 67.9965 513.876 72.4556 515.702 80.5384C517.394 88.0271 520.807 98.982 513.202 100.038C510.849 100.365 509.421 99.8864 507.202 99.0384C497.864 95.4698 508.835 81.0426 501.702 74.0384C491.097 63.6244 474.446 69.7696 464.202 80.5384C452.359 92.9881 455.174 109.918 464.202 124.538C474.721 141.572 492.445 145.771 512.202 142.538C532.187 139.268 544.135 128.113 552.202 109.538C559.281 93.2403 559.047 80.436 552.202 64.0384C544.256 45.0018 531.757 36.1075 512.202 29.5384C491.337 22.529 456.79 34.9038 453.896 35.9664C453.752 36.0196 453.635 36.0765 453.5 36.1524L313.058 115.49C311.947 116.118 311.349 117.345 311.585 118.599C314.189 132.419 329.654 211.33 344.702 219.538C361.202 228.538 293.202 229.538 297.202 217.538C300.721 206.982 289.536 143.026 286.794 127.793C286.479 126.04 284.74 124.968 283.028 125.458C269.536 129.319 215.993 144.146 179.702 147.038C140.512 150.161 81.472 142.446 69.7621 140.829C68.5056 140.655 67.536 139.708 67.2873 138.464Z" fill="#2C2C2C" stroke="#2C2C2C" stroke-width="20"/>
</svg>
