<svg width="674" height="846" viewBox="0 0 674 846" fill="none" xmlns="http://www.w3.org/2000/svg">
<path d="M353.31 821.555C353.31 821.555 319.289 841.595 295.798 839.938C272.125 838.268 241.003 813.282 241.003 813.282C241.003 813.282 216.365 818.519 202.058 813.282C189.814 808.8 175.34 793.061 175.34 793.061C175.34 793.061 152.783 787.966 141.829 778.814C127.413 766.768 119.186 736.072 119.186 736.072C119.186 736.072 55.7872 736.072 46.2773 690.574C36.7674 645.075 53.3615 642.921 46.2773 613.823C42.9755 600.262 43.4345 590.494 34.0503 580.274C24.88 570.287 1.10717 571.634 2.80358 565.567C4.5 559.5 22.729 556.376 22.729 556.376C22.729 556.376 -0.366357 541.669 2.80358 498.009C5.97352 454.348 46.2773 421.718 46.2773 421.718C46.2773 421.718 40.8244 398.2 46.2773 384.951C52.4586 369.932 77.0711 357.376 77.0711 357.376C77.0711 357.376 82.3201 337.444 89.2981 326.584C101.143 308.151 123.949 305.443 133.225 292.115C142.5 278.787 151.792 268.677 154.509 265.919C157.226 263.162 152.774 283.358 150.886 294.413C150.086 299.095 147.322 301.797 148.622 306.362C150.262 312.125 154.485 315.965 160.396 316.014C167.403 316.071 169.715 309.156 172.623 302.686C176.439 294.195 170.607 287.893 172.623 278.787C175.138 267.425 177.954 260.176 186.661 252.591C195.363 245.011 212.926 240.182 214.285 242.48C215.643 244.778 204.036 252.135 202.511 260.404C201.795 264.285 202.511 270.515 202.511 270.515C202.511 270.515 217.455 251.212 226.965 248.455C236.475 245.697 257.306 250.753 266.816 248.455C276.326 246.157 284.569 243.096 289.911 233.748C293.705 227.11 292.628 219.961 293.534 214.446C294.44 208.931 306.59 225.918 309.384 236.046C311.481 243.651 309.384 256.268 309.384 256.268C309.384 256.268 322.516 241.102 327.045 242.48C331.573 243.859 338.819 248.455 338.819 248.455C338.819 248.455 357.839 231.91 361.009 227.314C364.179 222.718 361.009 252.591 361.009 252.591C361.009 252.591 373.203 240.492 381.84 233.748C387.478 229.346 396.784 221.34 396.784 223.178C396.784 225.016 396.412 236.538 401.312 242.48C407.948 250.527 416.802 247.857 427.125 248.455C430.656 248.659 436.182 248.455 436.182 248.455C436.182 248.455 445.686 246.311 451.126 248.455C457.188 250.843 462.9 260.404 462.9 260.404C462.9 260.404 468.314 247.875 474.674 242.48C483.215 235.237 503.657 230.072 501.845 233.748C500.034 237.425 496.572 247.644 498.675 256.268C501.411 267.484 509.877 270.443 518.601 277.868C530.267 287.797 541.52 286.989 552.112 298.09C558.018 304.28 564.792 316.014 564.792 316.014C564.792 316.014 591.057 329.342 594.227 338.993C597.155 347.909 594.673 351.726 594.278 352.256C595.376 350.858 613.867 327.474 609.5 343C605 359 602.731 364.569 606.454 375.3C612.898 393.873 628.075 396.965 639.965 412.526C653.463 430.192 666.589 438.748 670.306 460.782C673.711 480.974 660.343 512.256 660.343 512.256C660.343 512.256 674.214 543.911 670.306 564.188C666.473 584.074 642.682 607.849 642.682 607.849C642.682 607.849 643.557 646.248 633.625 667.595C626.194 683.566 606.454 703.442 606.454 703.442C606.454 703.442 603.023 711.831 597.85 716.77C592.877 721.517 583.811 725.962 583.811 725.962C583.811 725.962 568.621 751.9 554.376 764.107C538.181 777.985 505.921 788.925 505.921 788.925C505.921 788.925 476.938 829.827 439.805 836.721C402.671 843.615 391.915 847.793 367.801 833.044C361.651 829.282 353.31 821.555 353.31 821.555Z" fill="#2C2C2C"/>
<path d="M353.31 821.555C353.31 821.555 319.289 841.595 295.798 839.938C272.125 838.268 241.003 813.282 241.003 813.282C241.003 813.282 216.365 818.519 202.058 813.282C189.814 808.8 175.34 793.061 175.34 793.061C175.34 793.061 152.783 787.966 141.829 778.814C127.413 766.768 119.186 736.072 119.186 736.072C119.186 736.072 55.7872 736.072 46.2773 690.574C36.7674 645.075 53.3615 642.921 46.2773 613.823C42.9755 600.262 43.4345 590.494 34.0503 580.274C24.88 570.287 1.10717 571.634 2.80358 565.567C4.5 559.5 22.729 556.376 22.729 556.376C22.729 556.376 -0.366357 541.669 2.80358 498.009C5.97352 454.348 46.2773 421.718 46.2773 421.718C46.2773 421.718 40.8244 398.2 46.2773 384.951C52.4586 369.932 77.0711 357.376 77.0711 357.376C77.0711 357.376 82.3201 337.444 89.2981 326.584C101.143 308.151 123.949 305.443 133.225 292.115C142.5 278.787 151.792 268.677 154.509 265.919C157.226 263.162 152.774 283.358 150.886 294.413C150.086 299.095 147.322 301.797 148.622 306.362C150.262 312.125 154.485 315.965 160.396 316.014C167.403 316.071 169.715 309.156 172.623 302.686C176.439 294.195 170.607 287.893 172.623 278.787C175.138 267.425 177.954 260.176 186.661 252.591C195.363 245.011 212.926 240.182 214.285 242.48C215.643 244.778 204.036 252.135 202.511 260.404C201.795 264.285 202.511 270.515 202.511 270.515C202.511 270.515 217.455 251.212 226.965 248.455C236.475 245.697 257.306 250.753 266.816 248.455C276.326 246.157 284.569 243.096 289.911 233.748C293.705 227.11 292.628 219.961 293.534 214.446C294.44 208.931 306.59 225.918 309.384 236.046C311.481 243.651 309.384 256.268 309.384 256.268C309.384 256.268 322.516 241.102 327.045 242.48C331.573 243.859 338.819 248.455 338.819 248.455C338.819 248.455 357.839 231.91 361.009 227.314C364.179 222.718 361.009 252.591 361.009 252.591C361.009 252.591 373.203 240.492 381.84 233.748C387.478 229.346 396.784 221.34 396.784 223.178C396.784 225.016 396.412 236.538 401.312 242.48C407.948 250.527 416.802 247.857 427.125 248.455C430.656 248.659 436.182 248.455 436.182 248.455C436.182 248.455 445.686 246.311 451.126 248.455C457.188 250.843 462.9 260.404 462.9 260.404C462.9 260.404 468.314 247.875 474.674 242.48C483.215 235.237 503.657 230.072 501.845 233.748C500.034 237.425 496.572 247.644 498.675 256.268C501.411 267.484 509.877 270.443 518.601 277.868C530.267 287.797 541.52 286.989 552.112 298.09C558.018 304.28 564.792 316.014 564.792 316.014C564.792 316.014 591.057 329.342 594.227 338.993C597.397 348.644 594.227 352.321 594.227 352.321C594.227 352.321 614 327 609.5 343C605 359 602.731 364.569 606.454 375.3C612.898 393.873 628.075 396.965 639.965 412.526C653.463 430.192 666.589 438.748 670.306 460.782C673.711 480.974 660.343 512.256 660.343 512.256C660.343 512.256 674.214 543.911 670.306 564.188C666.473 584.074 642.682 607.849 642.682 607.849C642.682 607.849 643.557 646.248 633.625 667.595C626.194 683.566 606.454 703.442 606.454 703.442C606.454 703.442 603.023 711.831 597.85 716.77C592.877 721.517 583.811 725.962 583.811 725.962C583.811 725.962 568.621 751.9 554.376 764.107C538.181 777.985 505.921 788.925 505.921 788.925C505.921 788.925 476.938 829.827 439.805 836.721C402.671 843.615 391.915 847.793 367.801 833.044C361.651 829.282 353.31 821.555 353.31 821.555Z" stroke="#2C2C2C" stroke-width="5"/>
<path d="M311 593.5C299.667 593.5 290.833 589.833 284.5 582.5C278.5 575.167 275.5 566.333 275.5 556C275.5 542.333 280.667 531.167 291 522.5C301.333 513.5 316.333 503.5 336 492.5C345.667 486.833 354 480.667 361 474C368.333 467 372 458.833 372 449.5C372 439.167 367.833 431.667 359.5 427C351.167 422.333 341.833 420 331.5 420C321.833 420 313.5 421.833 306.5 425.5C299.833 429.167 296.5 433.667 296.5 439C296.5 442.333 298 445 301 447C304 448.667 307.167 450.167 310.5 451.5C313.833 452.5 315.5 454.833 315.5 458.5C315.5 465.167 313.333 471.833 309 478.5C304.667 484.833 297.333 488 287 488C279.333 488 272.167 485.333 265.5 480C259.167 474.667 256 466.333 256 455C256 442.333 260 430.167 268 418.5C276.333 406.5 287.5 396.667 301.5 389C315.5 381 331.167 377 348.5 377C369.167 377 385.667 382.667 398 394C410.667 405 417 419.167 417 436.5C417 452.833 412.167 467 402.5 479C393.167 491 381.5 502.667 367.5 514C359.167 520.333 352 526.5 346 532.5C340 538.5 337 543.833 337 548.5C337 550.833 337.667 553 339 555C340.667 557 342.167 558.833 343.5 560.5C347.167 563.5 349 567 349 571C349 576.333 345 581.5 337 586.5C329 591.167 320.333 593.5 311 593.5ZM313 679.5C303.667 679.5 296 676.5 290 670.5C284.333 664.5 281.5 656.833 281.5 647.5C281.5 637.833 284.667 629.833 291 623.5C297.333 617.167 305.5 614 315.5 614C324.833 614 332.333 616.833 338 622.5C343.667 628.167 346.5 635.667 346.5 645C346.5 655 343.333 663.333 337 670C330.667 676.333 322.667 679.5 313 679.5Z" fill="#EEEEEE"/>
<path d="M318.875 224.097L310.724 257.187L327.479 265L346.046 249.374C346.046 249.374 342.876 201.118 346.046 199.28C349.216 197.441 358.726 197.901 364.613 197.901C370.5 197.901 404.444 198.702 429.823 192.386C457.318 185.543 472.29 178.648 496.845 164.351C518.997 151.455 534.306 145.75 549.376 124.827C558.104 112.709 567.49 100.01 566.131 90.3584C564.773 80.7071 564.32 80.2475 554.81 78.4092C545.3 76.5709 529.438 85.3741 515.865 78.4092C509.58 75.1839 505.261 73.1598 501.827 66.9196C497.342 58.7716 500.015 48.9959 501.827 43.0213C503.638 37.0467 488.963 50.0943 484.166 57.728C477.371 68.5395 475.383 78.6528 480.543 90.3584C485.497 101.597 501.827 102.308 505.45 109.201C509.072 116.095 503.187 122.097 496.845 124.827C488.525 128.409 470.571 125.437 465.203 118.058C459.904 110.773 463.844 101.053 462.486 92.3209C461.127 83.5888 443.023 100.123 441.202 111.164C439.807 119.618 443.49 124.905 448.447 131.845C458.105 145.367 473.543 142.415 475.807 145.633C478.071 148.85 456.826 162.293 429.823 168.488C391.958 177.174 369.458 176.37 330.649 175.381C288.59 174.31 263.94 174.309 223.776 161.594C189.421 150.718 157.66 131.261 140.905 120.691C124.149 110.12 106.035 94.4946 100.601 79.788C96.5574 68.8453 100.207 50.4265 106.959 40.9595C115.528 28.945 127.22 26.7529 141.829 27.172C155.455 27.5629 164.928 30.6176 173.981 40.9595C182.6 50.8047 182.133 69.9132 178.51 76.807C174.887 83.7007 159.389 89.3084 150.244 84.4708C143.899 81.114 135.753 77.0258 135.753 69.7641C135.753 64.7087 137.124 62.6675 139.829 61.0321C146.7 56.8782 153.773 64.2119 159.207 67.8886C164.641 71.5652 162.151 57.6099 156.131 50.4616C150.473 43.743 142.976 41.6025 134.395 43.1083C122.528 45.1906 116.281 60.5725 119.451 72.5216C122.621 84.4708 138.017 97.7987 150.244 101.475C162.471 105.152 188.473 100.246 196.171 85.9986C203.869 71.7515 205.847 44.4229 193.454 27.172C179.504 7.75299 159.943 6.49077 141.829 5.11202C123.715 3.73328 99.2609 15.2229 89.751 31.7678C80.2411 48.3128 75.2411 63.7026 83.3924 92.1967C91.5437 120.691 136.581 150.423 180.303 172.624C229.812 197.763 314.346 193.765 318.875 202.956C323.403 212.148 318.875 224.097 318.875 224.097Z" fill="#2C2C2C" stroke="#2C2C2C" stroke-width="10"/>
</svg>
